<?xml version="1.0" encoding="UTF-8"?>
<svg id="Layer_2" data-name="Layer 2" xmlns="http://www.w3.org/2000/svg" viewBox="0 0 894.19 1382.29">
  <defs>
    <style>
      .cls-1 {
        fill: #eb4851;
        stroke-width: 0px;
      }
    </style>
  </defs>
  <g id="OBJECTS">
    <g>
      <path class="cls-1" d="M70.97,3.75h823.22c-.31-1.22-.57-2.47-.78-3.75H67.22s0,33.61,0,33.61h-29.86V0s-37.36,0-37.36,0v37.36s33.61,0,33.61,0v29.86H0s0,1314.87,0,1314.87c1.26-.01,2.51.04,3.75.16V70.97h33.61s0-1.87,0-1.87h0v-31.73h31.73s0,0,0,0h1.88s0-33.61,0-33.61ZM3.75,33.61V3.75h29.86v29.86H3.75Z"/>
      <path class="cls-1" d="M823.22,1377.88H1.96c.31,1.44.57,2.91.78,4.4h824.23s0-39.5,0-39.5h29.86v39.5s37.36,0,37.36,0v-43.9s-33.61,0-33.61,0v-35.09h33.61s0-1299.36,0-1299.36c-1.26.02-2.51-.05-3.75-.19v1295.14h-33.61s0,2.2,0,2.2h0v37.29h-31.73s0,0,0,0h-1.88s0,39.5,0,39.5ZM890.44,1342.85v35.69h-29.86v-35.69h29.86Z"/>
    </g>
  </g>
</svg>